<svg width="49" height="49" viewBox="0 0 49 49" fill="none" xmlns="http://www.w3.org/2000/svg">
<g clip-path="url(#clip0)">
<path d="M16.0433 0.634781C16.0433 2.82175 19.8337 6.42408 24.509 6.42408C29.1842 6.42408 32.9746 2.82175 32.9746 0.634781L35.6745 7.96992L28.6175 21.1654L16.0714 18.2472L13.9779 2.64081L16.0433 0.634781Z" fill="#EABE32" fill-opacity="0.69"/>
<path d="M41.1098 25.8605V46.3944C41.1098 46.3944 33.9645 48.1743 24.5093 48.1743C22.4327 48.1743 20.467 48.0887 18.6647 47.9541H18.6617C12.2582 47.4782 7.90781 46.3944 7.90781 46.3944V25.8605C13.3797 22.0125 12.5251 4.68199 12.5251 0.634415H16.0437C16.0437 0.634415 14.6145 14.5925 24.5093 14.5925C34.4034 14.5925 32.9742 0.634415 32.9742 0.634415H36.4928C36.4928 4.68199 35.6382 22.0125 41.1098 25.8605Z" fill="#FEE372"/>
<path d="M18.6617 47.9541C12.2582 47.4782 7.90781 46.3944 7.90781 46.3944V25.8605C13.3797 22.0125 12.5251 4.68199 12.5251 0.634415H14.4859C14.4859 4.41694 15.2463 18.5007 12.9633 23.1957C10.6791 27.8904 10.2757 47.0838 18.6617 47.9541Z" fill="#EABE32" fill-opacity="0.69"/>
<path d="M13.2724 2.13314C13.2683 1.85799 13.2642 1.60041 13.2612 1.36489H15.2635C15.2284 2.16603 15.2142 3.4928 15.3757 5.02293C15.7286 8.37068 16.7166 10.964 18.3114 12.7308C19.8644 14.4508 21.9497 15.3226 24.5093 15.3226C27.0687 15.3226 29.1536 14.4508 30.7061 12.7312C33.8045 9.2993 33.8543 3.49504 33.7556 1.36489H35.7567C35.7537 1.60004 35.7496 1.85799 35.7455 2.13276C35.7197 3.80533 35.6842 6.09585 35.7582 8.68881C35.7698 9.09181 36.1085 9.41033 36.5089 9.39799C36.9123 9.3864 37.2297 9.05032 37.2181 8.64732C37.1448 6.08613 37.1799 3.81467 37.2057 2.15557C37.2151 1.55107 37.2233 1.02881 37.2233 0.634408C37.2233 0.231408 36.8962 -0.0957031 36.4928 -0.0957031H32.9742C32.7679 -0.0957031 32.5709 -0.00822437 32.4325 0.14505C32.3103 0.280007 32.2441 0.455338 32.2445 0.635904C32.243 2.32342 28.8994 5.6936 24.509 5.6936C20.1193 5.6936 16.7761 2.32454 16.7738 0.636652C16.7742 0.456086 16.708 0.280755 16.5858 0.145424C16.4471 -0.00822437 16.2505 -0.0957031 16.0437 -0.0957031H12.5251C12.1218 -0.0957031 11.7946 0.231408 11.7946 0.634408C11.7946 1.02881 11.8029 1.55107 11.8122 2.15557C11.8574 5.10368 11.9337 10.038 11.3879 14.7675C10.7415 20.3665 9.42935 23.8978 7.48799 25.2631C7.29322 25.3999 7.1777 25.6227 7.1777 25.8605V46.3944C7.1777 46.7298 7.40612 47.0221 7.73136 47.1028C7.79828 47.1197 9.40168 47.5159 12.1016 47.9376C12.1397 47.9436 12.1778 47.9466 12.2152 47.9466C12.5685 47.9466 12.8795 47.689 12.9356 47.329C12.998 46.9305 12.7255 46.557 12.327 46.4946C10.601 46.2251 9.31944 45.9626 8.63793 45.8127V26.222C13.5812 22.1804 13.3655 8.18076 13.2724 2.13314ZM18.0785 4.92909C19.9511 6.3639 22.2349 7.1542 24.509 7.1542C26.7831 7.1542 29.0668 6.3639 30.939 4.92909C31.4467 4.53993 31.8968 4.12085 32.2789 3.68906C32.1488 6.15006 31.5858 9.58005 29.6198 11.7551C28.3562 13.1532 26.6365 13.8624 24.5093 13.8624C22.3818 13.8624 20.6622 13.1532 19.3982 11.7547C17.4322 9.57968 16.8692 6.14968 16.7391 3.68906C17.1211 4.12085 17.5712 4.53993 18.0785 4.92909Z" fill="black"/>
<path d="M41.53 25.2631C38.6577 23.2436 37.6704 16.6864 37.3482 11.5412C37.3231 11.1386 36.9766 10.8335 36.5739 10.8582C36.1713 10.8833 35.8655 11.2302 35.8906 11.6324C36.3762 19.3818 37.8457 24.1628 40.3796 26.2227V45.812C38.5351 46.2153 32.277 47.4438 24.5093 47.4438C21.4581 47.4438 18.3238 47.2565 15.1936 46.8871C14.7936 46.8404 14.4302 47.1264 14.3827 47.5268C14.3356 47.9272 14.622 48.2902 15.0224 48.3373C18.209 48.7137 21.4009 48.9044 24.5093 48.9044C33.9447 48.9044 41.2141 47.1208 41.2866 47.1028C41.6118 47.0217 41.8402 46.7298 41.8402 46.3944V25.8605C41.8402 25.6227 41.7243 25.3999 41.53 25.2631Z" fill="black"/>
</g>
<defs>
<clipPath id="clip0">
<rect width="49" height="49" fill="white"/>
</clipPath>
</defs>
</svg>
